# xmcd CD database file
#
# Track frame offsets:
#	150
#	23942
#	59079
#	96190
#	127454
#	158966
#	189938
#	230639
#	255409
#	297447
#
# Disc length: 4420 seconds
#
# Revision: 3
# Processed by: cddbd v1.5.2PL0 Copyright (c) Steve Scherf et al.
# Submitted via: CDex 1.51
#
DISCID=9611420a
DTITLE=Oleg Butman - Runway
DYEAR=2012
DGENRE=Jazz
TTITLE0=The Mood
TTITLE1=Blow Kiss
TTITLE2=Dialogues
TTITLE3=The Nearness of You
TTITLE4=Runway
TTITLE5=Song of Love
TTITLE6=Chinatown
TTITLE7=The Man I Love
TTITLE8=Flight of The Soul
TTITLE9=Slow Dance  (Tk2)
EXTD=YEAR: 2012
EXTT0=
EXTT1=
EXTT2=
EXTT3=
EXTT4=
EXTT5=
EXTT6=
EXTT7=
EXTT8=
EXTT9=
PLAYORDER=
